# xmcd CD database file
#
# Track frame offsets:
#	183
#	14628
#	28405
#	43773
#	59415
#	75545
#	89878
#	105148
#	118840
#	131383
#	143713
#	158970
#	173950
#	190360
#	205183
#	219248
#	233410
#	247133
#	263515
#	275588
#
# Disc length: 3844 seconds
#
# Revision: 0
# Processed by: cddbd v1.5.1PL0 Copyright (c) Steve Scherf et al.
# Submitted via: CDex 1.51
#
DISCID=210f0214
DTITLE=Louis Satchmo Armtstrong - Louis Satchmo Armstrong - Volume 2 Classic
DYEAR=1995
DGENRE=Jazz
TTITLE0=That Rhytm Man
TTITLE1=I Gotta Right to sing the Blues
TTITLE2=Ain't misbehavin'
TTITLE3=Basin Street Blues
TTITLE4=I can't give you anything but Love
TTITLE5=That's my Home
TTITLE6=My Sweet
TTITLE7=Between the devil and the deep blue sea
TTITLE8=I ain't got nobody
TTITLE9=Dippermouth Blues
TTITLE10=I'm Confessin
TTITLE11=Dinah
TTITLE12=Stardust
TTITLE13=Sweethearts on Parade
TTITLE14=I got rhythm
TTITLE15=I'm in the mood for Love
TTITLE16=St. Louis Blues
TTITLE17=If i could be with you, one hor tonight
TTITLE18=Jeepers Creepers
TTITLE19=Ev'nTide
EXTD=YEAR: 1995
EXTT0=
EXTT1=
EXTT2=
EXTT3=
EXTT4=
EXTT5=
EXTT6=
EXTT7=
EXTT8=
EXTT9=
EXTT10=
EXTT11=
EXTT12=
EXTT13=
EXTT14=
EXTT15=
EXTT16=
EXTT17=
EXTT18=
EXTT19=
PLAYORDER=
